{"title":"All Goals UEFA Eurocopa 2008 HD. MKV 1280x720","uid":10129866,"size":8698322903,"categoryP":"video","categoryS":"hd___movies","magnet":"?xt=urn:btih:5c36cbfe38aaa3498d021e77a0e62de549f85bae&amp;dn=All+Goals+UEFA+Eurocopa+2008+HD.+MKV+1280x720&amp;tr=udp%3A%2F%2Ftracker.openbittorrent.com%3A80&amp;tr=udp%3A%2F%2Fopen.demonii.com%3A1337&amp;tr=udp%3A%2F%2Ftracker.coppersurfer.tk%3A6969&amp;tr=udp%3A%2F%2Fexodus.desync.com%3A6969","seeders":0,"leechers":4,"uploader":"Kyojuu","files":1,"time":1399820650,"description":"All Goals UEFA Eurocopa 2008 HD. MKV 1280x720\n\nComplete name                             All Goals UEFA Eurocopa 2008 HD. MKV 1280x720All Goals UEFA Eurocopa 2008 HD. MKV\nFormat                                   : Matroska\nFormat version                           : Version 4 / Version 2\nFile size                                : 8.10 GiB\nDuration                                 : 1h 53mn\nOverall bit rate                         : 10.2 Mbps\nEncoded date                             : UTC 2010-02-22 21:41:31\nWriting application                      : mkvmerge v5.8.0 ('No Sleep / Pillow') built on Nov 13 2012 19:43:22\nWriting library                          : libebml v1.3.0 + libmatroska v1.4.0\n\nVideo\nID                                       : 1\nFormat                                   : AVC\nFormat/Info                              : Advanced Video Codec\nFormat profile                           : &lt;a class=&quot;__cf_email__&quot; href=&quot;/cdn-cgi/l/email-protection&quot; data-cfemail=&quot;f3b19280969f9a9d96b3bfc2ddc0&quot;&gt;[email&amp;#160;protected]&lt;/a&gt;&lt;script cf-hash='f9e31' type=&quot;text/javascript&quot;&gt;\n/* &lt;![CDATA[ */!function(){try{var t=&quot;currentScript&quot;in document?document.currentScript:function(){for(var t=document.getElementsByTagName(&quot;script&quot;),e=t.length;e--;)if(t[e].getAttribute(&quot;cf-hash&quot;))return t[e]}();if(t&amp;&amp;t.previousSibling){var e,r,n,i,c=t.previousSibling,a=c.getAttribute(&quot;data-cfemail&quot;);if(a){for(e=&quot;&quot;,r=parseInt(a.substr(0,2),16),n=2;a.length-n;n+=2)i=parseInt(a.substr(n,2),16)^r,e+=String.fromCharCode(i);e=document.createTextNode(e),c.parentNode.replaceChild(e,c)}}}catch(u){}}();/* ]]&gt; */&lt;/script&gt;\nFormat settings, CABAC                   : No\nFormat settings, ReFrames                : 1 frame\nFormat settings, GOP                     : M=1, N=12\nMuxing mode                              : Header stripping\nCodec ID                                 : V_MPEG4/ISO/AVC\nDuration                                 : 1h 53mn\nBit rate                                 : 9 864 Kbps\nWidth                                    : 1 280 pixels\nHeight                                   : 720 pixels\nDisplay aspect ratio                     : 16:9\nFrame rate mode                          : Constant\nFrame rate                               : 60.000 fps\nColor space                              : YUV\nChroma subsampling                       : 4:2:0\nBit depth                                : 8 bits\nScan type                                : Progressive\nBits/(Pixel*Frame)                       : 0.178\nStream size                              : 7.84 GiB (97%)\nDefault                                  : Yes\nForced                                   : No\n\nAudio\nID                                       : 2\nFormat                                   : MPEG Audio\nFormat version                           : Version 1\nFormat profile                           : Layer 3\nMode                                     : Joint stereo\nMode extension                           : MS Stereo\nMuxing mode                              : Header stripping\nCodec ID                                 : A_MPEG/L3\nCodec ID/Hint                            : MP3\nDuration                                 : 1h 53mn\nBit rate mode                            : Constant\nBit rate                                 : 128 Kbps\nChannel(s)                               : 2 channels\nSampling rate                            : 44.1 KHz\nCompression mode                         : Lossy\nStream size                              : 104 MiB (1%)\nWriting library                          : LAME3.97\nDefault                                  : Yes\nForced                                   : No\n\n\nBest Video with 8:10 GB internet image.\n\n\nVideo com 8.10 GB Melhor imagem da internet. \n\nKyojuu Yamashi. ","torrent":{"xt":"urn:btih:5c36cbfe38aaa3498d021e77a0e62de549f85bae","amp;dn":"All+Goals+UEFA+Eurocopa+2008+HD.+MKV+1280x720","amp;tr":["udp%3A%2F%2Ftracker.openbittorrent.com%3A80","udp%3A%2F%2Fopen.demonii.com%3A1337","udp%3A%2F%2Ftracker.coppersurfer.tk%3A6969","udp%3A%2F%2Fexodus.desync.com%3A6969"],"infoHash":"5c36cbfe38aaa3498d021e77a0e62de549f85bae","infoHashBuffer":{"type":"Buffer","data":[92,54,203,254,56,170,163,73,141,2,30,119,160,230,45,229,73,248,91,174]},"announce":[],"urlList":[]}}